<svg viewBox="0 0 500 500" xmlns="http://www.w3.org/2000/svg" version="1.1" width="500" height="500">
	<path d="
        M 250 250
        m -118 0
        a 59 59 0 1 0 236 0
		l -40 0
		a 19 19 0 1 1 -156 0
		l -40 0
		a 59 59 0 1 1 236 0
		l -40 0
		a 19 19 0 1 0 -156 0
		z"
		fill="#000"/>
	<path d="
        M 250 250
        m -40 0
        a 20 20 0 1 0 80 0
		a 20 20 0 1 0 -80 0
		z"
		fill="#000"/>
	<path d="
		M 250 0
		L 218 103
		L 282 103
		Z"
		fill="#000"/>
	<path d="
		M 250 500
		L 218 397
		L 282 397
		Z"
		fill="#000"/>
	<path d="
		M 0 250
		L 103 218
		L 103 282
		Z"
		fill="#000"/>
	<path d="
		M 500 250
		L 397 218
		L 397 282
		Z"
		fill="#000"/>
	<path d="
		M 98 98
		L 118 166
		L 166 118
		Z"
		fill="#000"/>
	<path d="
		M 402 402
		L 382 334
		L 334 382
		Z"
		fill="#000"/>
	<path d="
		M 98 402
		L 118 334
		L 166 382
		Z"
		fill="#000"/>
	<path d="
		M 402 98
		L 382 166
		L 334 118
		Z"
		fill="#000"/>
</svg>