<svg xmlns="http://www.w3.org/2000/svg" version="1.1" width="240" height="240">
    <path d="
        M 0 55
        v 130
        a 15 15 0 0 0 15 15
        h 190
        a 15 15 0 0 0 15 -15
        v -25
        h -10
        v 25
        a 5 5 0 0 1 -5 5
        h -190
        a 5 5 0 0 1 -5 -5
        v -130
        a 5 5 0 0 1 5 -5
        h 190
        a 5 5 0 0 1 5 5
        v 25
        h 10
        v -25
        a 15 15 0 0 0 -15 -15
        h -190
        a 15 15 0 0 0 -15 15
        z
    " fill="black"
    />
    <path d="
        M 120 95
        v 50
        a 15 15 0 0 0 15 15
        h 90
        a 15 15 0 0 0 15 -15
        v -50
        a 15 15 0 0 0 -15 -15
        h -90
        v 10
        h 90
        a 5 5 0 0 1 5 5
        v 50
        a 5 5 0 0 1 -5 5
        h -90
        a 5 5 0 0 1 -5 -5
        v -50
        a 5 5 0 0 1 5 -5
        v -10
        a 15 15 0 0 0 -15 15
        z
    " />
    <path d="
        M 151 117
        l 6 6
        l 12 -12
        l 4 4
        l -16 16
        l 3 9
        a 20 20 0 1 0 0 -40
        a 20 20 0 1 0 0 40
        l -3 -9
        l -10 -10
        z
    " />
</svg>