<svg xmlns="http://www.w3.org/2000/svg" version="1.1" width="240" height="240">
    <!-- <path d="
        M 120 120
        m -85 0
        a 85 85 0 1 0 170 0
        l -45 0
		a 40 40 0 1 1 -80 0
        l -45 0
        a 85 85 0 1 1 170 0
        l -45 0
		a 40 40 0 1 0 -80 0
		z"/>
    <path d="
        M 120 0
        l 60 60
        l -60 60
		z" fill="blue"/>
    <path d="
        M 120 120
        l -60 60
        l 60 60
		z" fill="green"/> -->
    <!-- <path d="
        M 120 120
        l 0 -40
        a 40 40 1 0 0 -28 68
        l 28 -28
        l 0 40
        a 40 40 1 0 0 28 -68
        z" fill="none" stroke="red" stroke-width="1" /> -->
    <!-- <path d="
        M 120 0
        l 0 35
        a 85 85 1 0 0 -60.5 145.5
        l 60 59
        l 0 -35
        a 85 85 1 0 0 60.5 -145.5
        l -31.5 33.5
        a 40 40 0 0 1 -28.5 67.5
        l 0 -40
        l -60.5 60.5
        l 60.5 -60.5
        " fill="none" stroke="red" stroke-width="1" /> -->
    <path d="
        M 180 60
        l -60 -59
        l 0 34
        a 85 85 1 0 0 -62 142
        l 32 -32
        a 40 40 0 0 1 29 -67
        l 0 40
        l 60.8 -58.5
        " fill="none" stroke="#000" stroke-width="20" />
    <path d="
        M 60 180
        l 60 59
        l 0 -34
        a 85 85 1 0 0 62 -142
        l -32 32
        a 40 40 0 0 1 -29 67
        l 0 -40
        l -60.8 58.5
        " fill="none" stroke="#000" stroke-width="20" />
</svg>