<?xml version="1.0" standalone="no"?>
<!DOCTYPE svg>
<svg viewBox="0 0 1024 1024" version="1.1" xmlns="http://www.w3.org/2000/svg" xmlns:xlink="http://www.w3.org/1999/xlink" width="200" height="200">
    <path d="M953.799111 417.28h-9.045333V184.462222c0-2.474667 0 0 0 0a14.933333 14.933333 0 0 0 0-14.848 41.728 41.728 0 0 0-5.802667-14.222222L847.36 42.666667A35.84 35.84 0 0 0 820.337778 28.444444H196.067556v292.238223H50.318222a49.891556 49.891556 0 0 0-39.992889 17.351111 49.180444 49.180444 0 0 0-9.016889 40.846222l112.839112 552.277333c0.938667 3.896889 3.214222 7.395556 6.456888 9.927111 6.769778 29.240889 33.28 50.403556 64.483556 51.370667l257.962667 3.100445h511.374222c39.281778-1.024 70.371556-32.227556 69.660444-69.973334V484.124444c-0.711111-36.864-31.857778-66.531556-70.286222-66.844444z m-64.512-259.413333L806.741333 147.911111l15.473778-78.620444 67.072 88.519111zM232.789333 66.190222h552.675556l-14.193778 74.296889a32.995556 32.995556 0 0 0 6.456889 29.098667c6.229333 8.618667 16.184889 14.108444 27.079111 14.848l103.822222 9.927111v222.890667H232.789333V66.218667z m-193.422222 309.560889c0-6.172444 0-8.647111 3.214222-11.747555 3.214222-3.128889 0-6.200889 9.016889-6.200889h144.469334v61.923555H185.742222c-36.835556 0.938667-66.673778 29.013333-68.352 64.398222v275.512889L39.367111 375.751111z m330.154667-122.595555h377.912889a19.000889 19.000889 0 0 0 18.688-17.351112 18.972444 18.972444 0 0 0-18.062223-17.322666H369.521778a18.972444 18.972444 0 0 0-18.062222 17.351111 18.972444 18.972444 0 0 0 18.062222 17.351111z m-2.56 105.244444h380.472889a16.298667 16.298667 0 0 0 14.819555-17.322667 19.114667 19.114667 0 0 0-18.062222-14.848H366.961778a17.720889 17.720889 0 0 0-18.062222 17.351111c0 9.557333 8.078222 17.322667 18.062222 17.322667v-2.474667z"></path>
</svg>