<svg xmlns="http://www.w3.org/2000/svg" version="1.1" width="50" height="50">
	<path d="
        M 25, 25
        m -10, 0
        a10,10 0 1,0 20,0
        a10,10 0 1,0 -20,0"
    style="fill:#000000"/>
	<path d="
        M 25, 25
        m -7, 0
        a7,7 0 1,0 14,0
        a7,7 0 1,0 -14,0"
    style="fill:#ffffff"/>
	<path d="
        M 25, 25
        m -4, 0
        a4,4 0 1,0 8,0
        a4,4 0 1,0 -8,0"
    style="fill:#000000"/>
	<path d="
		M 25 0
		L 21 13
		L 29 13
		Z"
	style="fill:#000000"/>
	<path d="
		M 25 50
		L 21 37
		L 29 37
		Z"
	style="fill:#000000"/>
	<path d="
		M 0 25
		L 13 21
		L 13 29
		Z"
	style="fill:#000000"/>
	<path d="
		M 50 25
		L 37 21
		L 37 29
		Z"
	style="fill:#000000"/>
	<path d="
		M 9 9
		L 14 18
		L 18 14
		Z"
	style="fill:#000000"/>
	<path d="
		M 41 41
		L 36 32
		L 32 36
		Z"
	style="fill:#000000"/>
	<path d="
		M 9 41
		L 14 32
		L 18 36
		Z"
	style="fill:#000000"/>
	<path d="
		M 41 9
		L 36 18
		L 32 14
		Z"
	style="fill:#000000"/>
</svg>